<?xml version="1.0" standalone="no"?><!DOCTYPE svg PUBLIC "-//W3C//DTD SVG 1.1//EN" "http://www.w3.org/Graphics/SVG/1.1/DTD/svg11.dtd"><svg t="1722414326139" class="icon" viewBox="0 0 1024 1024" version="1.1" xmlns="http://www.w3.org/2000/svg" p-id="20504" xmlns:xlink="http://www.w3.org/1999/xlink" width="200" height="200"><path d="M749.382 923.927H204.8c-74.473 0-137.31-62.836-137.31-134.982V249.018c0-74.473 60.51-134.982 137.31-134.982h337.455c18.618 0 34.909 16.291 34.909 34.91s-16.291 34.909-34.91 34.909H204.8c-37.236 0-69.818 30.254-69.818 67.49v539.928c0 34.909 32.582 67.49 69.818 67.49h542.255c37.236 0 69.818-30.254 69.818-67.49v-409.6c0-18.618 16.29-34.91 34.909-34.91s34.909 16.292 34.909 34.91v407.272c-2.327 74.473-62.836 134.982-137.31 134.982z" fill="#02A7F0" p-id="20505"></path><path d="M716.8 781.964H242.036c-18.618 0-34.909-16.291-34.909-34.91s16.291-34.909 34.91-34.909H716.8c18.618 0 34.91 16.291 34.91 34.91s-16.292 34.909-34.91 34.909z m65.164-456.146l-162.91-160.582 90.764-90.763c44.218-44.218 118.691-44.218 162.91 0C896 95.418 907.635 123.345 907.635 153.6c0 30.255-11.636 58.182-34.909 81.455l-90.763 90.763zM716.8 162.91l65.164 65.164 44.218-41.891c6.982-9.31 11.636-18.618 11.636-32.582s-4.654-23.273-13.963-32.582c-18.619-18.618-48.873-18.618-67.491 0L716.8 162.91z" fill="#02A7F0" p-id="20506"></path><path d="M342.11 665.6c-18.62 0-34.91-6.982-46.546-20.945-16.291-16.291-23.273-41.891-16.291-62.837l23.272-90.763c2.328-6.982 6.982-18.619 16.291-27.928l349.091-346.763 162.91 160.581-351.419 349.091c-9.309 9.31-18.618 13.964-27.927 16.291h-2.327L358.4 663.273c-6.982 2.327-11.636 2.327-16.29 2.327zM365.381 512l-20.946 86.11 88.437-20.946 302.545-297.891-65.163-65.164L365.382 512z" fill="#02A7F0" p-id="20507"></path><path d="M393.31 458.473l93.09 90.763-41.89 39.564-93.092-90.764z" fill="#02A7F0" p-id="20508"></path></svg>