<?xml version="1.0" standalone="no"?><!DOCTYPE svg PUBLIC "-//W3C//DTD SVG 1.1//EN" "http://www.w3.org/Graphics/SVG/1.1/DTD/svg11.dtd"><svg t="1768838107040" class="icon" viewBox="0 0 1024 1024" version="1.1" xmlns="http://www.w3.org/2000/svg" p-id="5316" xmlns:xlink="http://www.w3.org/1999/xlink" width="200" height="200"><path d="M568.234667 129.109333c158.741333 50.112 273.856 198.506667 273.856 373.824 0 216.469333-175.488 391.957333-391.978667 391.957334-48.426667 0-94.784-8.789333-137.6-24.853334 1.429333-9.621333 3.136-19.242667 5.12-27.136 6.741333-26.517333 86.357333-54.933333 98.133333-60.288 11.818667-5.376 46.144-37.546667 71.893334-48.298666 25.749333-10.730667 51.498667-11.797333 86.912 2.133333 31.722667 12.522667 55.808 67.242667 60.458666 78.485333l0.832 2.026667c14.08-54.698667-50.56-96.576-91.328-130.922667-40.768-34.346667-60.074667-75.093333-63.296-150.186666-3.221333-75.114667 43.989333-131.989333 68.757334-172.757334 24.746667-40.746667 42.816-101.909333 20.757333-135.168-22.08-33.28-21.930667-55.808-19.925333-75.690666 0.896-8.832 8.853333-16.896 17.408-23.125334z m359.274666 151.914667l4.48 0.170667c42.368 273.28-128.789333 468.544-178.048 518.293333l-3.285333 3.264c-6.101333 6.058667-9.642667 9.173333-9.642667 9.173333v0.426667c-0.106667 2.176-2.517333 11.093333-29.333333 36.053333-31.466667 29.333333-86.250667 21.205333-86.250667 21.205334a401.472 401.472 0 0 0 81.813334-49.109334s59.626667-43.946667 116.032-153.770666c79.786667-155.434667 55.424-307.669333 53.888-316.629334l-0.042667-0.256 1.856 7.082667c33.642667 135.146667-26.154667 274.176-48.298667 319.04l-2.218666 4.437333c-2.773333 5.44-4.650667 8.874667-5.312 10.026667l-0.234667 0.426667c137.237333-203.797333 107.797333-391.957333 104.832-408.64l-0.170667-0.896-0.064-0.298667zM450.133333 138.154667c30.442667-0.021333 60.778667 3.754667 90.282667 11.264a26.88 26.88 0 0 0-0.234667 1.749333c-2.133333 21.013333-2.368 46.485333 21.653334 82.688 11.093333 16.725333 11.413333 52.928-5.845334 94.08a825.856 825.856 0 0 0-95.125333-56.021333c-64.362667-32.213333-142.144-57.941333-148.330667-55.808-6.165333 2.154667-12.586667 37.546667-5.098666 49.365333 7.509333 11.797333 102.997333 51.498667 74.026666 140.544-28.949333 89.045333-22.528 171.669333 48.298667 224.234667 30.72 22.826667 67.498667 41.984 99.306667 56.384 2.773333 2.602667 5.653333 5.141333 8.576 7.616 5.504 4.629333 11.306667 9.28 17.429333 14.229333 6.848 5.504 13.866667 11.157333 20.714667 16.96a152.533333 152.533333 0 0 0-36.096-9.216 88.469333 88.469333 0 0 0-42.368-17.301333c-47.189333-6.442667-84.736 2.133333-113.706667 17.152-28.970667 15.04-23.957333 17.173333-79.573333 11.818666-51.626667-4.992-79.36 14.997333-83.072 17.898667l-0.426667 0.341333s43.114667 49.002667 95.210667 79.189334c-3.84 4.373333-6.613333 8.896-8.042667 13.525333C177.002667 783.381333 85.333333 653.866667 85.333333 502.933333c0-201.472 163.328-364.8 364.8-364.8z" fill="#4E4E4E" p-id="5317"></path></svg>