<?xml version="1.0" standalone="no"?><!DOCTYPE svg PUBLIC "-//W3C//DTD SVG 1.1//EN" "http://www.w3.org/Graphics/SVG/1.1/DTD/svg11.dtd"><svg t="1721963744696" class="icon" viewBox="0 0 1024 1024" version="1.1" xmlns="http://www.w3.org/2000/svg" p-id="15274" xmlns:xlink="http://www.w3.org/1999/xlink" width="200" height="200"><path d="M320.3 102.5h382.3c145.6 0 218.5 72.8 218.5 218.5v382.3c0 145.6-72.8 218.5-218.5 218.5H320.3c-145.6 0-218.5-72.8-218.5-218.5V321c0.1-145.7 72.9-218.5 218.5-218.5z m0 0" fill="#8888FF" p-id="15275"></path><path d="M320.3 744.2c-7.5 0-13.7-6.1-13.7-13.7V607.7c0-7.2 2.9-14.2 8-19.3 5.1-5.1 12.1-8 19.3-8h126c10.7 18 30.6 28.5 51.5 27.3 20.9 1.2 40.8-9.3 51.5-27.3h126c7.2 0 14.2 2.9 19.3 8 5.1 5.1 8 12.1 8 19.3v122.9c0 7.5-6.1 13.7-13.7 13.7H320.3z m151-191.1H347.6V307.3c0-7.5 6.1-13.7 13.7-13.7h245.8c7.5 0 13.7 6.1 13.7 13.7v245.8h-69.1c-5.7 17.1-22.1 28.3-40.1 27.3-18.1 1-34.6-10.2-40.3-27.3z m-55.4-81.9c0 7.5 6.1 13.7 13.7 13.7h109.2c3.6 0 7.1-1.4 9.7-4 2.6-2.6 4-6 4-9.7 0-3.6-1.4-7.1-4-9.7-2.6-2.6-6-4-9.7-4H429.6c-7.6 0-13.7 6.1-13.7 13.7z m0-54.7c0 7.5 6.1 13.7 13.7 13.7h109.2c3.6 0 7.1-1.4 9.7-4 2.6-2.6 4-6 4-9.7 0-7.5-6.1-13.7-13.7-13.7H429.6c-7.6 0.1-13.7 6.2-13.7 13.7z m0-54.6c0 7.5 6.1 13.7 13.7 13.7h109.2c7.5 0 13.7-6.1 13.7-13.7 0-3.6-1.4-7.1-4-9.7-2.6-2.6-6-4-9.7-4H429.6c-7.6 0.1-13.7 6.2-13.7 13.7z m269.2 191.2H648v-192l81.6 29.7c3.4 1.2 6.2 3.8 7.7 7.1s1.7 7 0.5 10.4l-52.7 144.8z m0 0" fill="#FFFFFF" p-id="15276"></path></svg>