<?xml version="1.0" standalone="no"?><!DOCTYPE svg PUBLIC "-//W3C//DTD SVG 1.1//EN" "http://www.w3.org/Graphics/SVG/1.1/DTD/svg11.dtd"><svg t="1721963465708" class="icon" viewBox="0 0 1024 1024" version="1.1" xmlns="http://www.w3.org/2000/svg" p-id="4613" xmlns:xlink="http://www.w3.org/1999/xlink" width="200" height="200"><path d="M100.8 467.52l-15.36-4.8c0-2.24 76.8-232.96 265.92-250.88v16c-177.28 16.64-249.92 237.44-250.56 239.68zM352 736c-189.12-17.92-264.96-248.32-265.92-250.88l15.36-4.8c0 2.24 73.6 224 252.16 239.68zM369.6 225.6l-10.24-12.16a579.52 579.52 0 0 1 300.16-123.52v16c-156.48 9.92-288.64 118.08-289.92 119.68z" fill="#C9C9C9" p-id="4614"></path><path d="M659.52 339.2a579.52 579.52 0 0 1-300.16-123.52l10.24-12.16s133.44 110.08 290.88 119.68zM369.6 740.8l-10.24-12.16a579.52 579.52 0 0 1 300.16-123.52v16c-156.48 9.6-288.64 118.4-289.92 119.68zM659.52 900.48a579.52 579.52 0 0 1-300.16-123.52l10.24-12.16s133.44 110.08 290.88 119.68zM681.6 582.08l-15.04-6.08c2.88-8.96 72.96-221.12 210.24-242.88l2.56 15.68c-127.68 21.76-196.8 231.36-197.76 233.28zM713.92 616h-40.32v-16c1.92 0 182.08 10.24 251.52-41.28l9.6 12.8c-52.8 38.4-161.6 44.48-220.8 44.48zM906.24 792a320 320 0 0 1-253.44-160l14.4-7.04a304 304 0 0 0 240.64 152z" fill="#C9C9C9" p-id="4615"></path><path d="M93.12 464.96m-81.28 0a81.28 81.28 0 1 0 162.56 0 81.28 81.28 0 1 0-162.56 0Z" fill="#EF991B" p-id="4616"></path><path d="M352 219.52m-81.28 0a81.28 81.28 0 1 0 162.56 0 81.28 81.28 0 1 0-162.56 0Z" fill="#0B72B2" p-id="4617"></path><path d="M352 729.6m-81.28 0a81.28 81.28 0 1 0 162.56 0 81.28 81.28 0 1 0-162.56 0Z" fill="#0B72B2" p-id="4618"></path><path d="M660.16 109.76m-81.28 0a81.28 81.28 0 1 0 162.56 0 81.28 81.28 0 1 0-162.56 0Z" fill="#1CAF14" p-id="4619"></path><path d="M660.16 320.96m-81.28 0a81.28 81.28 0 1 0 162.56 0 81.28 81.28 0 1 0-162.56 0Z" fill="#1CAF14" p-id="4620"></path><path d="M660.16 612.16m-81.28 0a81.28 81.28 0 1 0 162.56 0 81.28 81.28 0 1 0-162.56 0Z" fill="#1CAF14" p-id="4621"></path><path d="M660.16 875.52m-81.28 0a81.28 81.28 0 1 0 162.56 0 81.28 81.28 0 1 0-162.56 0Z" fill="#1CAF14" p-id="4622"></path><path d="M930.88 320.96m-81.28 0a81.28 81.28 0 1 0 162.56 0 81.28 81.28 0 1 0-162.56 0Z" fill="#1CAF14" p-id="4623"></path><path d="M930.88 546.24m-81.28 0a81.28 81.28 0 1 0 162.56 0 81.28 81.28 0 1 0-162.56 0Z" fill="#1CAF14" p-id="4624"></path><path d="M930.88 771.52m-81.28 0a81.28 81.28 0 1 0 162.56 0 81.28 81.28 0 1 0-162.56 0Z" fill="#1CAF14" p-id="4625"></path></svg>