<?xml version="1.0" standalone="no"?><!DOCTYPE svg PUBLIC "-//W3C//DTD SVG 1.1//EN" "http://www.w3.org/Graphics/SVG/1.1/DTD/svg11.dtd"><svg t="1721963290236" class="icon" viewBox="0 0 1025 1024" version="1.1" xmlns="http://www.w3.org/2000/svg" p-id="3512" xmlns:xlink="http://www.w3.org/1999/xlink" width="200.1953125" height="200"><path d="M932.238953 53.31442a473.226469 473.226469 0 0 1-54.721938 97.045891A512.910424 512.910424 0 0 0 514.002423 0.00048h-0.1C231.994739 0.00048 0.002 231.963219 0.002 513.939903a514.169423 514.169423 0 0 0 159.649821 372.389582l18.965978 16.786981A511.509426 511.509426 0 0 0 509.676428 1023.99933c268.071699 0 493.399446-209.791764 512.496424-477.252464 13.999984-130.943853-24.445973-296.519667-89.965899-493.432446zM232.730739 889.274481a43.979951 43.979951 0 0 1-78.110913-27.745969 43.944951 43.944951 0 1 1 78.047913 27.872969l0.064-0.1z m697.361216-153.882827C803.250098 904.301464 532.389402 847.400528 358.741597 855.505519c0 0-30.852965 1.889998-61.80393 6.919992 0 0 11.629987-4.904994 26.68797-10.668988 121.876863-42.387952 179.546798-50.620943 253.620715-88.6519 139.529843-70.90292 277.426688-226.098746 306.133656-387.543565-53.15394 155.325826-214.11676 288.767676-360.855595 343.041615-100.501887 37.037958-282.070683 73.049918-282.070683 73.049918l-7.336992-3.845996c-123.637861-60.136932-127.354857-327.726632 97.299891-414.103535 98.38989-37.837958 192.520784-17.075981 298.762664-42.387952 113.449873-26.91197 244.681725-112.007874 298.090666-222.95875 59.816933 177.463801 131.776852 455.306489 2.819996 627.035296z" fill="#6DB33F" p-id="3513"></path></svg>